<?xml version="1.0" encoding="UTF-8" standalone="no"?>
<svg width="914px" height="182px" viewBox="0 0 914 182" version="1.1" xmlns="http://www.w3.org/2000/svg" xmlns:xlink="http://www.w3.org/1999/xlink" xmlns:sketch="http://www.bohemiancoding.com/sketch/ns">
    <!-- Generator: Sketch 3.2.2 (9983) - http://www.bohemiancoding.com/sketch -->
    <title>GIST 4</title>
    <desc>Created with Sketch.</desc>
    <defs></defs>
    <g id="Page-1" stroke="none" stroke-width="1" fill="none" fill-rule="evenodd" sketch:type="MSPage">
        <path d="M651.459162,88.2090663 L676.711953,88.2090663 C676.711953,74.9588873 673.540137,64.7782832 667.196409,57.6669486 C660.85268,50.555614 650.483281,47 636.087898,47 C627.670259,47 620.655664,48.3979337 615.043905,51.193843 C609.432146,53.9897524 604.918407,58.1531636 601.502553,63.6842016 C598.0867,69.2152397 595.677339,76.1137386 594.274399,84.3799053 C592.871459,92.646072 592.17,102.249269 592.17,113.189783 C592.17,124.494982 592.657972,134.432467 593.63393,143.002537 C594.609888,151.572607 596.531277,158.775005 599.398154,164.609946 C602.265031,170.444887 606.229802,174.760248 611.292585,177.556157 C616.355368,180.352066 622.912488,181.75 630.964143,181.75 C637.185876,181.75 642.523067,180.686355 646.975876,178.559032 C651.428686,176.43171 655.240965,172.815316 658.412829,167.709743 L658.778811,167.709743 L658.778811,179.744249 L678.175883,179.744249 L678.175883,109.542963 L635.538924,109.542963 L635.538924,128.87111 L652.923092,128.87111 L652.923092,142.182003 C652.923092,145.70728 652.374124,148.776656 651.276171,151.390223 C650.178218,154.003791 648.805797,156.161471 647.158868,157.863329 C645.511938,159.565187 643.743041,160.841561 641.852122,161.69249 C639.961203,162.543419 638.222803,162.968877 636.636871,162.968877 C632.855034,162.968877 629.774712,161.783672 627.395814,159.413227 C625.016916,157.042782 623.187022,153.639118 621.906077,149.202131 C620.625131,144.765145 619.740683,139.386139 619.252704,133.064953 C618.764724,126.743766 618.520739,119.693318 618.520739,111.913396 C618.520739,95.6241856 619.923657,83.9544782 622.729537,76.9039242 C625.535417,69.8533703 630.110152,66.3281461 636.45388,66.3281461 C639.137765,66.3281461 641.425133,67.027113 643.316052,68.4250677 C645.206971,69.8230223 646.762381,71.5856344 647.982328,73.7129567 C649.202276,75.840279 650.086725,78.1802985 650.635701,80.7330853 C651.184678,83.285872 651.459162,85.7778408 651.459162,88.2090663 L651.459162,88.2090663 Z M696.475007,179.744249 L722.825746,179.744249 L722.825746,49.552774 L696.475007,49.552774 L696.475007,179.744249 Z M763.632792,139.082206 L737.282054,139.082206 L737.282054,144.370095 C737.282054,156.404661 740.484368,165.643179 746.889094,172.085927 C753.293819,178.528675 763.937703,181.75 778.821065,181.75 C793.094453,181.75 804.226309,178.619844 812.216967,172.359438 C820.207624,166.099033 824.202893,156.100768 824.202893,142.364344 C824.202893,138.352822 823.836914,134.706038 823.104945,131.423884 C822.372977,128.141729 821.061553,125.133133 819.170634,122.398004 C817.279715,119.662875 814.748361,117.110127 811.576497,114.739682 C808.404633,112.369237 804.31787,110.089997 799.316084,107.901894 L779.004056,99.1495264 C773.392297,96.8398622 769.732509,94.3175035 768.024582,91.5823748 C766.316655,88.8472461 765.462705,85.4739713 765.462705,81.4624493 C765.462705,79.5174688 765.676192,77.6332973 766.103174,75.8098782 C766.530156,73.9864591 767.32311,72.3757963 768.48206,70.9778417 C769.64101,69.579887 771.19642,68.4554621 773.148337,67.6045332 C775.100253,66.7536042 777.540112,66.3281461 780.467986,66.3281461 C785.591767,66.3281461 789.251555,67.9995886 791.447461,71.3425237 C793.643367,74.6854588 794.741303,79.4566672 794.741303,85.6562923 L819.994094,85.6562923 L819.994094,82.0094723 C819.994094,75.8098472 818.987652,70.4916212 816.974739,66.0546346 C814.961825,61.6176481 812.155987,57.9708645 808.557142,55.1141746 C804.958296,52.2574846 800.688543,50.1909739 795.747755,48.9145805 C790.806967,47.6381871 785.408779,47 779.55303,47 C766.987569,47 757.106141,50.1605458 749.908449,56.4817321 C742.710758,62.8029184 739.111966,72.4061151 739.111966,85.2916103 C739.111966,90.6403064 739.782927,95.3507352 741.12487,99.4230379 C742.466812,103.495341 744.57119,107.081344 747.438067,110.181157 C750.304945,113.280969 753.873238,115.985667 758.143055,118.295332 C762.412872,120.604996 767.475579,122.732286 773.331328,124.677267 C777.72314,126.136002 781.413426,127.564325 784.402298,128.96228 C787.39117,130.360235 789.80053,131.910118 791.630452,133.611976 C793.460374,135.313833 794.771798,137.228395 795.564764,139.355717 C796.35773,141.48304 796.754207,144.005398 796.754207,146.922869 C796.754207,152.393126 795.1378,156.434978 791.904939,159.048545 C788.672077,161.662113 785.042787,162.968877 781.01696,162.968877 C777.601106,162.968877 774.764771,162.482639 772.507867,161.510149 C770.250964,160.537659 768.451568,159.200505 767.109626,157.498647 C765.767683,155.796789 764.852736,153.699888 764.364757,151.207882 C763.876778,148.715876 763.632792,145.950399 763.632792,142.911367 L763.632792,139.082206 Z M913.868601,49.552774 L830.424595,49.552774 L830.424595,71.0690122 L858.971228,71.0690122 L858.971228,179.744249 L885.321967,179.744249 L885.321967,71.0690122 L913.868601,71.0690122 L913.868601,49.552774 Z M0.75,50.5 L0.75,179 L5.75,179 L5.75,106.25 C5.75,99.0832975 6.70832375,92.2500325 8.625,85.75 C10.5416762,79.2499675 13.2916488,73.5416913 16.875,68.625 C20.4583512,63.7083088 24.8333075,59.7916812 30,56.875 C35.1666925,53.9583188 40.916635,52.5 47.25,52.5 C54.4167025,52.5 60.2499775,53.666655 64.75,56 C69.2500225,58.333345 72.7499875,61.49998 75.25,65.5 C77.7500125,69.50002 79.4583287,74.16664 80.375,79.5 C81.2916713,84.83336 81.75,90.49997 81.75,96.5 L81.75,179 L86.75,179 L86.75,97.5 C86.75,91.49997 87.6666575,85.7916938 89.5,80.375 C91.3333425,74.9583063 93.9999825,70.1666875 97.5,66 C101.000018,61.8333125 105.249975,58.5416788 110.25,56.125 C115.250025,53.7083213 120.833303,52.5 127,52.5 C134.000035,52.5 139.791644,53.49999 144.375,55.5 C148.958356,57.50001 152.624986,60.333315 155.375,64 C158.125014,67.666685 160.041661,72.0833075 161.125,77.25 C162.208339,82.4166925 162.75,88.166635 162.75,94.5 L162.75,179 L167.75,179 L167.75,94.5 C167.75,87.499965 167.08334,81.1250288 165.75,75.375 C164.41666,69.6249713 162.166683,64.7083538 159,60.625 C155.833317,56.5416462 151.666692,53.333345 146.5,51 C141.333308,48.666655 134.833373,47.5 127,47.5 C116.99995,47.5 108.33337,50.2499725 101,55.75 C93.66663,61.2500275 88.7500125,68.499955 86.25,77.5 L85.75,77.5 C83.5833225,67.9999525 79.1250338,60.5416938 72.375,55.125 C65.6249662,49.7083063 57.25005,47.166665 47.25,47.5 C42.249975,47.5 37.5416888,48.3749912 33.125,50.125 C28.7083112,51.8750088 24.666685,54.3333175 21,57.5 C17.333315,60.6666825 14.2500125,64.3333125 11.75,68.5 C9.2499875,72.6666875 7.4166725,77.249975 6.25,82.25 L5.75,82.25 L5.75,50.5 L0.75,50.5 Z M292.75,179 L292.75,50.5 L287.75,50.5 L287.75,123.25 C287.75,130.416703 286.75001,137.249967 284.75,143.75 C282.74999,150.250033 279.791686,155.958309 275.875,160.875 C271.958314,165.791691 267.083363,169.708319 261.25,172.625 C255.416637,175.541681 248.666705,177 241,177 C235.499972,177 230.291691,176.208341 225.375,174.625 C220.458309,173.041659 216.125019,170.541684 212.375,167.125 C208.624981,163.708316 205.666677,159.375026 203.5,154.125 C201.333323,148.874974 200.25,142.500037 200.25,135 L200.25,50.5 L195.25,50.5 L195.25,135.75 C195.25,143.250037 196.374989,149.874971 198.625,155.625 C200.875011,161.375029 204.041646,166.208314 208.125,170.125 C212.208354,174.041686 217.041639,176.958324 222.625,178.875 C228.208361,180.791676 234.3333,181.75 241,181.75 C253.66673,181.75 263.958294,178.500033 271.875,172 C279.791706,165.499967 284.916655,157.25005 287.25,147.25 L287.75,147.25 L287.75,179 L292.75,179 Z M404,88.5 L409,88.5 C409,74.166595 404.833375,63.7500325 396.5,57.25 C388.166625,50.7499675 376.833405,47.5 362.5,47.5 C354.49996,47.5 347.750028,48.49999 342.25,50.5 C336.749972,52.50001 332.250018,55.0833175 328.75,58.25 C325.249982,61.4166825 322.750007,64.9166475 321.25,68.75 C319.749993,72.5833525 319,76.2499825 319,79.75 C319,86.750035 320.249987,92.3333125 322.75,96.5 C325.250013,100.666688 329.16664,103.916655 334.5,106.25 C338.166685,107.916675 342.33331,109.41666 347,110.75 C351.66669,112.08334 357.083303,113.499993 363.25,115 C368.750028,116.33334 374.16664,117.66666 379.5,119 C384.83336,120.33334 389.541646,122.124989 393.625,124.375 C397.708354,126.625011 401.041654,129.499982 403.625,133 C406.208346,136.500018 407.5,141.083305 407.5,146.75 C407.5,152.250028 406.208346,156.916648 403.625,160.75 C401.041654,164.583352 397.75002,167.708321 393.75,170.125 C389.74998,172.541679 385.291691,174.291661 380.375,175.375 C375.458309,176.458339 370.66669,177 366,177 C350.833257,177 339.208374,173.625034 331.125,166.875 C323.041626,160.124966 319,149.500072 319,135 L314,135 C314,151.166747 318.374956,162.999963 327.125,170.5 C335.875044,178.000037 348.833247,181.75 366,181.75 C371.500028,181.75 377.041639,181.125006 382.625,179.875 C388.208361,178.624994 393.208311,176.583347 397.625,173.75 C402.041689,170.916653 405.624986,167.250022 408.375,162.75 C411.125014,158.249978 412.5,152.750033 412.5,146.25 C412.5,140.083303 411.291679,135.083352 408.875,131.25 C406.458321,127.416648 403.291686,124.250013 399.375,121.75 C395.458314,119.249987 391.041691,117.291674 386.125,115.875 C381.208309,114.458326 376.250025,113.08334 371.25,111.75 C364.249965,109.916657 358.125026,108.33334 352.875,107 C347.624974,105.66666 342.750022,104.083343 338.25,102.25 C333.916645,100.416657 330.458346,97.7916838 327.875,94.375 C325.291654,90.9583162 324,86.083365 324,79.75 C324,78.5833275 324.33333,76.500015 325,73.5 C325.66667,70.499985 327.249987,67.4583487 329.75,64.375 C332.250013,61.2916513 336.083308,58.5416787 341.25,56.125 C346.416692,53.7083213 353.499955,52.5 362.5,52.5 C368.666697,52.5 374.291641,53.16666 379.375,54.5 C384.458359,55.83334 388.833315,57.9583188 392.5,60.875 C396.166685,63.7916812 398.99999,67.4999775 401,72 C403.00001,76.5000225 404,81.9999675 404,88.5 L404,88.5 Z M441,25.75 L441,0.5 L436,0.5 L436,25.75 L441,25.75 Z M441,179 L441,50.5 L436,50.5 L436,179 L441,179 Z M572,135.25 L567,135.25 C566.499998,141.750033 564.91668,147.541641 562.25,152.625 C559.58332,157.708359 556.125021,162.083315 551.875,165.75 C547.624979,169.416685 542.750028,172.208324 537.25,174.125 C531.749972,176.041676 525.833365,177 519.5,177 C510.999958,177 503.500033,175.375016 497,172.125 C490.499967,168.874984 485.083355,164.500028 480.75,159 C476.416645,153.499972 473.125011,147.166703 470.875,140 C468.624989,132.833297 467.5,125.333373 467.5,117.5 C467.5,109.999963 468.458324,102.375039 470.375,94.625 C472.291676,86.8749613 475.374979,79.8750313 479.625,73.625 C483.875021,67.3749687 489.541631,62.2916863 496.625,58.375 C503.708369,54.4583137 512.333282,52.5 522.5,52.5 C527.83336,52.5 532.916643,53.2499925 537.75,54.75 C542.583357,56.2500075 546.916648,58.5416513 550.75,61.625 C554.583352,64.7083487 557.83332,68.5416437 560.5,73.125 C563.16668,77.7083563 564.999995,83.166635 566,89.5 L571,89.5 C570.166662,82.6666325 568.291681,76.6250262 565.375,71.375 C562.458319,66.1249738 558.833355,61.7500175 554.5,58.25 C550.166645,54.7499825 545.250028,52.0833425 539.75,50.25 C534.249972,48.4166575 528.50003,47.5 522.5,47.5 C512.333282,47.5 503.458371,49.4166475 495.875,53.25 C488.291629,57.0833525 482.041691,62.2083013 477.125,68.625 C472.208309,75.0416987 468.541679,82.4582913 466.125,90.875 C463.708321,99.2917087 462.5,108.16662 462.5,117.5 C462.5,126.333378 463.749987,134.624961 466.25,142.375 C468.750013,150.125039 472.416642,156.916637 477.25,162.75 C482.083358,168.583363 488.041631,173.208316 495.125,176.625 C502.208369,180.041684 510.333288,181.75 519.5,181.75 C526.83337,181.75 533.541636,180.666677 539.625,178.5 C545.708364,176.333323 551.041644,173.25002 555.625,169.25 C560.208356,165.24998 563.916653,160.375029 566.75,154.625 C569.583347,148.874971 571.33333,142.416703 572,135.25 L572,135.25 Z" id="GIST-4" fill="#FFFFFF" sketch:type="MSShapeGroup"></path>
    </g>
</svg>