<?xml version="1.0" encoding="UTF-8" standalone="no"?>
<svg width="1457px" height="301px" viewBox="0 0 1457 301" version="1.1" xmlns="http://www.w3.org/2000/svg" xmlns:xlink="http://www.w3.org/1999/xlink" xmlns:sketch="http://www.bohemiancoding.com/sketch/ns">
    <!-- Generator: Sketch 3.2.2 (9983) - http://www.bohemiancoding.com/sketch -->
    <title>music-gist 2</title>
    <desc>Created with Sketch.</desc>
    <defs></defs>
    <g id="Page-1" stroke="none" stroke-width="1" fill="none" fill-rule="evenodd" sketch:type="MSPage">
        <path d="M987.5,72.5994475 C987.5,60.7209351 989.577039,50.2238025 993.731178,41.1077348 C997.885317,31.9916671 1003.35485,24.4641181 1010.13995,18.5248619 C1016.92504,12.5856057 1024.54085,8.09670028 1032.9876,5.05801105 C1041.43435,2.01932182 1049.95021,0.5 1058.53543,0.5 C1067.12065,0.5 1075.63651,2.01932182 1084.08326,5.05801105 C1092.53001,8.09670028 1100.14582,12.5856057 1106.93091,18.5248619 C1113.71601,24.4641181 1119.18554,31.9916671 1123.33968,41.1077348 C1127.49382,50.2238025 1129.57086,60.7209351 1129.57086,72.5994475 L1129.57086,87.5165746 L1087.19885,87.5165746 L1087.19885,72.5994475 C1087.19885,62.3784019 1084.36023,54.8508529 1078.68291,50.0165746 C1073.00558,45.1822963 1066.28982,42.7651934 1058.53543,42.7651934 C1050.78104,42.7651934 1044.06528,45.1822963 1038.38795,50.0165746 C1032.71063,54.8508529 1029.87201,62.3784019 1029.87201,72.5994475 L1029.87201,228.400552 C1029.87201,238.621598 1032.71063,246.149147 1038.38795,250.983425 C1044.06528,255.817704 1050.78104,258.234807 1058.53543,258.234807 C1066.28982,258.234807 1073.00558,255.817704 1078.68291,250.983425 C1084.36023,246.149147 1087.19885,238.621598 1087.19885,228.400552 L1087.19885,172.875691 L1053.55049,172.875691 L1053.55049,135.582873 L1129.57086,135.582873 L1129.57086,228.400552 C1129.57086,240.555309 1127.49382,251.121502 1123.33968,260.099448 C1119.18554,269.077393 1113.71601,276.535882 1106.93091,282.475138 C1100.14582,288.414394 1092.53001,292.9033 1084.08326,295.941989 C1075.63651,298.980678 1067.12065,300.5 1058.53543,300.5 C1049.95021,300.5 1041.43435,298.980678 1032.9876,295.941989 C1024.54085,292.9033 1016.92504,288.414394 1010.13995,282.475138 C1003.35485,276.535882 997.885317,269.077393 993.731178,260.099448 C989.577039,251.121502 987.5,240.555309 987.5,228.400552 L987.5,72.5994475 Z M1164.46546,87.9309392 L1206.83747,87.9309392 L1206.83747,298.013812 L1164.46546,298.013812 L1164.46546,87.9309392 Z M1164.46546,2.98618785 L1206.83747,2.98618785 L1206.83747,45.2513812 L1164.46546,45.2513812 L1164.46546,2.98618785 Z M1318.58326,146.770718 C1318.30632,139.588362 1316.02157,134.201675 1311.72896,130.610497 C1307.43635,127.019319 1302.52069,125.223757 1296.98184,125.223757 C1290.33522,125.223757 1285.21186,127.364619 1281.6116,131.646409 C1278.01135,135.928198 1276.21125,140.831464 1276.21125,146.356354 C1276.21125,150.223776 1277.18053,154.022081 1279.11913,157.751381 C1281.05773,161.480682 1286.04262,164.864626 1294.07396,167.903315 L1318.99867,177.848066 C1334.7844,183.925445 1345.65424,192.212655 1351.6085,202.709945 C1357.56277,213.207235 1360.53986,224.671209 1360.53986,237.10221 C1360.53986,245.942033 1358.94746,254.160183 1355.76262,261.756906 C1352.57778,269.353629 1348.216,276.052457 1342.67715,281.853591 C1337.1383,287.654725 1330.49177,292.212691 1322.73738,295.527624 C1314.98298,298.842558 1306.53636,300.5 1297.39725,300.5 C1289.08898,300.5 1281.19623,299.118798 1273.71878,296.356354 C1266.24133,293.593909 1259.66404,289.588424 1253.98671,284.339779 C1248.30939,279.091134 1243.67067,272.530426 1240.07042,264.657459 C1236.47016,256.784491 1234.53159,247.5995 1234.25465,237.10221 L1274.13419,237.10221 C1274.96502,242.903344 1276.97282,248.29003 1280.15766,253.262431 C1283.3425,258.234831 1288.95051,260.720994 1296.98184,260.720994 C1303.07458,260.720994 1308.54412,258.718252 1313.39061,254.712707 C1318.23711,250.707162 1320.66032,245.113296 1320.66032,237.930939 C1320.66032,232.129805 1319.13716,227.157479 1316.09079,223.013812 C1313.04442,218.870145 1307.50565,215.279021 1299.47431,212.240331 L1279.11913,204.781768 C1265.82589,199.809367 1255.37146,192.419939 1247.75554,182.61326 C1240.13961,172.806581 1236.33171,160.859186 1236.33171,146.770718 C1236.33171,137.930895 1237.99334,129.712745 1241.31665,122.116022 C1244.63996,114.519299 1249.14021,108.027651 1254.81754,102.640884 C1260.49486,97.2541167 1267.07215,93.0414517 1274.5496,90.0027624 C1282.02705,86.9640732 1290.05827,85.4447514 1298.64349,85.4447514 C1307.22871,85.4447514 1315.19069,87.0331333 1322.52967,90.2099448 C1329.86865,93.3867562 1336.169,97.6684814 1341.43091,103.055249 C1346.69282,108.442016 1350.8469,114.933664 1353.89327,122.530387 C1356.93964,130.12711 1358.4628,138.20714 1358.4628,146.770718 L1318.58326,146.770718 Z M1387.95704,24.1187845 L1430.32905,24.1187845 L1430.32905,87.9309392 L1456.5,87.9309392 L1456.5,121.08011 L1430.32905,121.08011 L1430.32905,237.516575 C1430.32905,242.488975 1430.81369,246.35634 1431.78299,249.118785 C1432.75229,251.881229 1434.27545,253.953032 1436.35252,255.334254 C1438.42959,256.715477 1441.12974,257.544198 1444.45306,257.820442 C1447.77637,258.096686 1451.79198,258.234807 1456.5,258.234807 L1456.5,298.013812 L1439.0527,298.013812 C1429.35971,298.013812 1421.25926,296.49449 1414.75111,293.455801 C1408.24296,290.417112 1403.05036,286.549747 1399.17316,281.853591 C1395.29597,277.157435 1392.45735,271.839809 1390.65722,265.900552 C1388.85709,259.961296 1387.95704,254.229309 1387.95704,248.70442 L1387.95704,121.08011 L1366.77104,121.08011 L1366.77104,87.9309392 L1387.95704,87.9309392 L1387.95704,24.1187845 Z" id="Gist-2" fill="#FFFFFF" sketch:type="MSShapeGroup"></path>
        <path d="M265.027814,0.5 L140.008409,285.189655 L139.180466,285.189655 L14.1610608,0.5 L0.5,0.5 L0.5,295.948276 L8.77943079,295.948276 L8.77943079,10.8448276 L9.60737387,10.8448276 L135.04075,295.948276 L144.148124,295.948276 L269.581501,10.8448276 L270.409444,10.8448276 L270.409444,295.948276 L278.688875,295.948276 L278.688875,0.5 L265.027814,0.5 Z M485.260673,295.948276 L485.260673,83.2586207 L476.981242,83.2586207 L476.981242,203.672414 C476.981242,215.534542 475.325372,226.844774 472.013583,237.603448 C468.701795,248.362123 463.80318,257.810304 457.317594,265.948276 C450.832007,274.086248 442.759643,280.568941 433.100259,285.396552 C423.440875,290.224162 412.263755,292.637931 399.568564,292.637931 C390.461145,292.637931 381.836824,291.327599 373.695343,288.706897 C365.553862,286.086194 358.378427,281.948304 352.168823,276.293103 C345.959219,270.637903 341.060604,263.465561 337.472833,254.775862 C333.885062,246.086163 332.091203,235.534545 332.091203,223.12069 L332.091203,83.2586207 L323.811772,83.2586207 L323.811772,224.362069 C323.811772,236.775924 325.674626,247.741332 329.400388,257.258621 C333.126151,266.77591 338.369738,274.77583 345.131307,281.258621 C351.892876,287.741412 359.896245,292.56895 369.141656,295.741379 C378.387066,298.913809 388.529268,300.5 399.568564,300.5 C420.543227,300.5 437.584885,295.120743 450.694049,284.362069 C463.803213,273.603394 472.289545,259.948359 476.153299,243.396552 L476.981242,243.396552 L476.981242,295.948276 L485.260673,295.948276 Z M669.478008,146.155172 L677.757439,146.155172 C677.757439,122.430916 670.857982,105.189709 657.058862,94.4310345 C643.259741,83.67236 624.493219,78.2931034 600.758732,78.2931034 C587.511577,78.2931034 576.334457,79.9482593 567.227038,83.2586207 C558.119618,86.5689821 550.668205,90.8448014 544.872574,96.0862069 C539.076944,101.327612 534.93727,107.120658 532.453428,113.465517 C529.969587,119.810377 528.727684,125.879281 528.727684,131.672414 C528.727684,143.258679 530.797521,152.499966 534.937257,159.396552 C539.076994,166.293138 545.562483,171.672394 554.39392,175.534483 C560.465533,178.293117 567.364989,180.775851 575.092497,182.982759 C582.820004,185.189666 591.789298,187.53447 602.000647,190.017241 C611.108066,192.224149 620.07736,194.431023 628.908797,196.637931 C637.740234,198.844839 645.53662,201.810326 652.298189,205.534483 C659.059758,209.258639 664.579323,214.017212 668.85705,219.810345 C673.134778,225.603477 675.273609,233.189608 675.273609,242.568966 C675.273609,251.672459 673.134778,259.39652 668.85705,265.741379 C664.579323,272.086239 659.128752,277.258601 652.505175,281.258621 C645.881597,285.258641 638.499178,288.155163 630.357697,289.948276 C622.216216,291.741388 614.281841,292.637931 606.554334,292.637931 C581.439935,292.637931 562.190451,287.05178 548.805304,275.87931 C535.420157,264.706841 528.727684,247.12081 528.727684,223.12069 L520.448254,223.12069 C520.448254,249.879444 527.692683,269.465455 542.181759,281.87931 C556.670836,294.293166 578.128146,300.5 606.554334,300.5 C615.661753,300.5 624.838031,299.465528 634.083441,297.396552 C643.328852,295.327576 651.6082,291.948299 658.921734,287.258621 C666.235267,282.568942 672.1688,276.500037 676.72251,269.051724 C681.276219,261.603411 683.55304,252.500054 683.55304,241.741379 C683.55304,231.534432 681.552198,223.258652 677.550453,216.913793 C673.548708,210.568934 668.305121,205.327607 661.819534,201.189655 C655.333948,197.051703 648.020524,193.810357 639.879043,191.465517 C631.737562,189.120678 623.527208,186.844839 615.247736,184.637931 C603.656475,181.603433 593.514274,178.98277 584.820828,176.775862 C576.127382,174.568954 568.055018,171.948291 560.603493,168.913793 C553.42795,165.879295 547.701401,161.534511 543.423674,155.87931 C539.145947,150.22411 537.007115,142.155225 537.007115,131.672414 C537.007115,129.74137 537.559072,126.293128 538.663001,121.327586 C539.766931,116.362044 542.388724,111.327612 546.528461,106.224138 C550.668197,101.120664 557.015697,96.5689855 565.571151,92.5689655 C574.126606,88.5689455 585.855682,86.5689655 600.758732,86.5689655 C610.970081,86.5689655 620.284348,87.6724028 628.701811,89.8793103 C637.119275,92.0862179 644.363704,95.6034241 650.435317,100.431034 C656.50693,105.258645 661.19856,111.396514 664.510349,118.844828 C667.822138,126.293141 669.478008,135.396498 669.478008,146.155172 L669.478008,146.155172 Z M730.745796,42.2931034 L730.745796,0.5 L722.466365,0.5 L722.466365,42.2931034 L730.745796,42.2931034 Z M730.745796,295.948276 L730.745796,83.2586207 L722.466365,83.2586207 L722.466365,295.948276 L730.745796,295.948276 Z M947.666882,223.534483 L939.387451,223.534483 C938.559504,234.293157 935.937711,243.879268 931.521992,252.293103 C927.106274,260.706939 921.379725,267.948246 914.342173,274.017241 C907.304622,280.086237 899.232258,284.706881 890.124838,287.87931 C881.017419,291.05174 871.22019,292.637931 860.732859,292.637931 C846.657756,292.637931 834.238734,289.948303 823.47542,284.568966 C812.712107,279.189628 803.742813,271.948321 796.56727,262.844828 C789.391728,253.741334 783.941157,243.25868 780.215395,231.396552 C776.489632,219.534423 774.626779,207.120754 774.626779,194.155172 C774.626779,181.741317 776.213654,169.120754 779.387451,156.293103 C782.561249,143.465453 787.666847,131.879362 794.704398,121.534483 C801.74195,111.189603 811.125211,102.775894 822.854463,96.2931034 C834.583715,89.8103124 848.865591,86.5689655 865.700517,86.5689655 C874.531954,86.5689655 882.949292,87.8103324 890.952781,90.2931034 C898.956271,92.7758745 906.131706,96.56894 912.479301,101.672414 C918.826897,106.775888 924.208473,113.120652 928.624191,120.706897 C933.03991,128.293141 936.075671,137.327534 937.731565,147.810345 L946.010996,147.810345 C944.631084,136.499943 941.526329,126.500043 936.696636,117.810345 C931.866944,109.120646 925.864417,101.879339 918.688875,96.0862069 C911.513332,90.2930745 903.371973,85.8793255 894.264554,82.8448276 C885.157134,79.8103297 875.635884,78.2931034 865.700517,78.2931034 C848.865591,78.2931034 834.169748,81.4654855 821.612549,87.8103448 C809.055349,94.1552041 798.706164,102.637878 790.564683,113.258621 C782.423202,123.879363 776.35168,136.155103 772.349935,150.086207 C768.34819,164.017311 766.347348,178.706819 766.347348,194.155172 C766.347348,208.775935 768.417185,222.499936 772.556921,235.327586 C776.696657,248.155237 782.768179,259.396503 790.771669,269.051724 C798.775159,278.706945 808.641382,286.362041 820.370634,292.017241 C832.099886,297.672442 845.553827,300.5 860.732859,300.5 C872.876085,300.5 883.98421,298.706914 894.057568,295.12069 C904.130926,291.534465 912.96223,286.431068 920.551746,279.810345 C928.141263,273.189622 934.281779,265.120737 938.97348,255.603448 C943.665181,246.086159 946.562953,235.396611 947.666882,223.534483 L947.666882,223.534483 Z" id="Music-2" fill="#FFFFFF" sketch:type="MSShapeGroup"></path>
    </g>
</svg>